<svg xmlns="http://www.w3.org/2000/svg" xmlns:xlink="http://www.w3.org/1999/xlink" width="1080" zoomAndPan="magnify" viewBox="0 0 810 809.999993" height="1080" preserveAspectRatio="xMidYMid meet" version="1.0"><defs><g/><clipPath id="5ef621b130"><path d="M 181.5625 57.644531 L 581 57.644531 L 581 550 L 181.5625 550 Z M 181.5625 57.644531 " clip-rule="nonzero"/></clipPath></defs><rect x="-81" width="972" fill="#ffffff" y="-80.999999" height="971.999992" fill-opacity="1"/><rect x="-81" width="972" fill="#ffffff" y="-80.999999" height="971.999992" fill-opacity="1"/><g fill="#4599ff" fill-opacity="1"><g transform="translate(181.562586, 741.17562)"><g><path d="M 24.296875 0 L 1.296875 0 L 20 -150.53125 L 53.546875 -150.53125 L 72.25 0 L 49.03125 0 L 45.59375 -32.25 L 27.953125 -32.25 Z M 30.328125 -53.546875 L 43.21875 -53.546875 L 37.84375 -101.9375 C 37.5625 -104.800781 37.347656 -108.023438 37.203125 -111.609375 C 37.054688 -115.191406 36.984375 -118.488281 36.984375 -121.5 L 36.5625 -121.5 C 36.5625 -118.488281 36.488281 -115.191406 36.34375 -111.609375 C 36.195312 -108.023438 35.984375 -104.800781 35.703125 -101.9375 Z M 30.328125 -53.546875 "/></g></g></g><g fill="#4599ff" fill-opacity="1"><g transform="translate(246.069687, 741.17562)"><g><path d="M 7.53125 0 L 7.53125 -150.53125 L 32.46875 -150.53125 L 32.46875 -21.296875 L 56.5625 -21.296875 L 56.5625 0 Z M 7.53125 0 "/></g></g></g><g fill="#4599ff" fill-opacity="1"><g transform="translate(295.954877, 741.17562)"><g><path d="M 24.296875 0 L 1.296875 0 L 20 -150.53125 L 53.546875 -150.53125 L 72.25 0 L 49.03125 0 L 45.59375 -32.25 L 27.953125 -32.25 Z M 30.328125 -53.546875 L 43.21875 -53.546875 L 37.84375 -101.9375 C 37.5625 -104.800781 37.347656 -108.023438 37.203125 -111.609375 C 37.054688 -115.191406 36.984375 -118.488281 36.984375 -121.5 L 36.5625 -121.5 C 36.5625 -118.488281 36.488281 -115.191406 36.34375 -111.609375 C 36.195312 -108.023438 35.984375 -104.800781 35.703125 -101.9375 Z M 30.328125 -53.546875 "/></g></g></g><g fill="#4599ff" fill-opacity="1"><g transform="translate(360.461978, 741.17562)"><g><path d="M 5.375 -101.5 L 5.375 -126.015625 C 5.375 -133.617188 7.738281 -139.75 12.46875 -144.40625 C 17.195312 -149.0625 23.363281 -151.390625 30.96875 -151.390625 L 44.9375 -151.390625 C 52.539062 -151.390625 58.707031 -149.0625 63.4375 -144.40625 C 68.164062 -139.75 70.53125 -133.617188 70.53125 -126.015625 L 70.53125 -98.28125 L 45.375 -98.28125 L 45.375 -124.078125 C 45.375 -126.953125 43.941406 -128.390625 41.078125 -128.390625 L 34.625 -128.390625 C 31.757812 -128.390625 30.328125 -126.953125 30.328125 -124.078125 L 30.328125 -101.078125 C 30.328125 -98.347656 31.398438 -96.265625 33.546875 -94.828125 L 57.625 -75.703125 C 61.5 -73.117188 64.617188 -69.566406 66.984375 -65.046875 C 69.347656 -60.535156 70.53125 -55.984375 70.53125 -51.390625 L 70.53125 -24.515625 C 70.53125 -16.921875 68.164062 -10.789062 63.4375 -6.125 C 58.707031 -1.46875 52.539062 0.859375 44.9375 0.859375 L 30.96875 0.859375 C 23.363281 0.859375 17.195312 -1.46875 12.46875 -6.125 C 7.738281 -10.789062 5.375 -16.921875 5.375 -24.515625 L 5.375 -52.25 L 30.328125 -52.25 L 30.328125 -26.453125 C 30.328125 -23.585938 31.757812 -22.15625 34.625 -22.15625 L 41.078125 -22.15625 C 43.941406 -22.15625 45.375 -23.585938 45.375 -26.453125 L 45.375 -51.828125 C 45.375 -54.410156 44.300781 -56.5625 42.15625 -58.28125 L 18.28125 -77.203125 C 14.40625 -79.921875 11.285156 -83.503906 8.921875 -87.953125 C 6.554688 -92.398438 5.375 -96.914062 5.375 -101.5 Z M 5.375 -101.5 "/></g></g></g><g fill="#4599ff" fill-opacity="1"><g transform="translate(427.549424, 741.17562)"><g><path d="M 7.53125 0 L 7.53125 -150.53125 L 32.46875 -150.53125 L 32.46875 -85.796875 L 47.53125 -85.796875 L 47.53125 -150.53125 L 72.6875 -150.53125 L 72.6875 0 L 47.53125 0 L 47.53125 -64.734375 L 32.46875 -64.734375 L 32.46875 0 Z M 7.53125 0 "/></g></g></g><g fill="#77b4ff" fill-opacity="1"><g transform="translate(498.955326, 741.17562)"><g><path d="M 56.5625 0 L 7.53125 0 L 7.53125 -150.53125 L 56.5625 -150.53125 L 56.5625 -129.25 L 32.46875 -129.25 L 32.46875 -85.796875 L 54.40625 -85.796875 L 54.40625 -64.734375 L 32.46875 -64.734375 L 32.46875 -21.296875 L 56.5625 -21.296875 Z M 56.5625 0 "/></g></g></g><g fill="#77b4ff" fill-opacity="1"><g transform="translate(551.850918, 741.17562)"><g><path d="M 47.09375 0 L 7.53125 0 L 7.53125 -150.53125 L 47.09375 -150.53125 C 54.695312 -150.53125 60.863281 -148.203125 65.59375 -143.546875 C 70.320312 -138.890625 72.6875 -132.6875 72.6875 -124.9375 L 72.6875 -25.59375 C 72.6875 -17.988281 70.320312 -11.820312 65.59375 -7.09375 C 60.863281 -2.363281 54.695312 0 47.09375 0 Z M 43.21875 -129.25 L 32.46875 -129.25 L 32.46875 -21.296875 L 43.21875 -21.296875 C 46.09375 -21.296875 47.53125 -22.726562 47.53125 -25.59375 L 47.53125 -124.9375 C 47.53125 -127.8125 46.09375 -129.25 43.21875 -129.25 Z M 43.21875 -129.25 "/></g></g></g><path fill="#4599ff" d="M 598.125 86.980469 L 531.800781 339.714844 L 445.582031 368.597656 Z M 598.125 86.980469 " fill-opacity="1" fill-rule="nonzero"/><path fill="#4599ff" d="M 598.125 86.980469 L 531.800781 339.714844 L 445.582031 368.597656 Z M 598.125 86.980469 " fill-opacity="1" fill-rule="nonzero"/><path fill="#4599ff" d="M 598.125 86.980469 L 531.800781 339.714844 L 445.582031 368.597656 Z M 598.125 86.980469 " fill-opacity="1" fill-rule="nonzero"/><g clip-path="url(#5ef621b130)"><path fill="#4599ff" d="M 181.5625 549.363281 L 472.714844 57.644531 L 580.257812 57.644531 L 291.730469 549.363281 Z M 181.5625 549.363281 " fill-opacity="1" fill-rule="nonzero"/></g><path fill="#4599ff" d="M 526.902344 290.214844 L 626.578125 256.988281 L 447.882812 562.65625 Z M 526.902344 290.214844 " fill-opacity="1" fill-rule="nonzero"/></svg>