<svg xmlns="http://www.w3.org/2000/svg" xmlns:xlink="http://www.w3.org/1999/xlink" width="1080" zoomAndPan="magnify" viewBox="0 0 810 809.999993" height="1080" preserveAspectRatio="xMidYMid meet" version="1.0"><defs><g/><clipPath id="7a4931b8c8"><path d="M 26.601562 310.074219 L 182 310.074219 L 182 501 L 26.601562 501 Z M 26.601562 310.074219 " clip-rule="nonzero"/></clipPath></defs><rect x="-81" width="972" fill="#ffffff" y="-80.999999" height="971.999992" fill-opacity="1"/><rect x="-81" width="972" fill="#ffffff" y="-80.999999" height="971.999992" fill-opacity="1"/><g fill="#4599ff" fill-opacity="1"><g transform="translate(219.793336, 499.773453)"><g><path d="M 30.640625 0 L 1.625 0 L 25.21875 -189.859375 L 67.53125 -189.859375 L 91.125 0 L 61.84375 0 L 57.5 -40.6875 L 35.265625 -40.6875 Z M 38.234375 -67.53125 L 54.515625 -67.53125 L 47.734375 -128.5625 C 47.367188 -132.175781 47.097656 -136.242188 46.921875 -140.765625 C 46.742188 -145.285156 46.65625 -149.441406 46.65625 -153.234375 L 46.109375 -153.234375 C 46.109375 -149.441406 46.015625 -145.285156 45.828125 -140.765625 C 45.648438 -136.242188 45.378906 -132.175781 45.015625 -128.5625 Z M 38.234375 -67.53125 "/></g></g></g><g fill="#4599ff" fill-opacity="1"><g transform="translate(301.150858, 499.773453)"><g><path d="M 9.5 0 L 9.5 -189.859375 L 40.953125 -189.859375 L 40.953125 -26.84375 L 71.328125 -26.84375 L 71.328125 0 Z M 9.5 0 "/></g></g></g><g fill="#4599ff" fill-opacity="1"><g transform="translate(364.066962, 499.773453)"><g><path d="M 30.640625 0 L 1.625 0 L 25.21875 -189.859375 L 67.53125 -189.859375 L 91.125 0 L 61.84375 0 L 57.5 -40.6875 L 35.265625 -40.6875 Z M 38.234375 -67.53125 L 54.515625 -67.53125 L 47.734375 -128.5625 C 47.367188 -132.175781 47.097656 -136.242188 46.921875 -140.765625 C 46.742188 -145.285156 46.65625 -149.441406 46.65625 -153.234375 L 46.109375 -153.234375 C 46.109375 -149.441406 46.015625 -145.285156 45.828125 -140.765625 C 45.648438 -136.242188 45.378906 -132.175781 45.015625 -128.5625 Z M 38.234375 -67.53125 "/></g></g></g><g fill="#4599ff" fill-opacity="1"><g transform="translate(445.424483, 499.773453)"><g><path d="M 6.78125 -128.015625 L 6.78125 -158.9375 C 6.78125 -168.519531 9.765625 -176.25 15.734375 -182.125 C 21.703125 -188 29.476562 -190.9375 39.0625 -190.9375 L 56.6875 -190.9375 C 66.269531 -190.9375 74.039062 -188 80 -182.125 C 85.96875 -176.25 88.953125 -168.519531 88.953125 -158.9375 L 88.953125 -123.953125 L 57.234375 -123.953125 L 57.234375 -156.5 C 57.234375 -160.113281 55.421875 -161.921875 51.796875 -161.921875 L 43.671875 -161.921875 C 40.046875 -161.921875 38.234375 -160.113281 38.234375 -156.5 L 38.234375 -127.46875 C 38.234375 -124.03125 39.59375 -121.410156 42.3125 -119.609375 L 72.6875 -95.46875 C 77.570312 -92.21875 81.503906 -87.742188 84.484375 -82.046875 C 87.460938 -76.347656 88.953125 -70.609375 88.953125 -64.828125 L 88.953125 -30.921875 C 88.953125 -21.335938 85.96875 -13.609375 80 -7.734375 C 74.039062 -1.859375 66.269531 1.078125 56.6875 1.078125 L 39.0625 1.078125 C 29.476562 1.078125 21.703125 -1.859375 15.734375 -7.734375 C 9.765625 -13.609375 6.78125 -21.335938 6.78125 -30.921875 L 6.78125 -65.90625 L 38.234375 -65.90625 L 38.234375 -33.359375 C 38.234375 -29.742188 40.046875 -27.9375 43.671875 -27.9375 L 51.796875 -27.9375 C 55.421875 -27.9375 57.234375 -29.742188 57.234375 -33.359375 L 57.234375 -65.359375 C 57.234375 -68.617188 55.875 -71.332031 53.15625 -73.5 L 23.046875 -97.375 C 18.171875 -100.800781 14.238281 -105.316406 11.25 -110.921875 C 8.269531 -116.535156 6.78125 -122.234375 6.78125 -128.015625 Z M 6.78125 -128.015625 "/></g></g></g><g fill="#4599ff" fill-opacity="1"><g transform="translate(530.036383, 499.773453)"><g><path d="M 9.5 0 L 9.5 -189.859375 L 40.953125 -189.859375 L 40.953125 -108.21875 L 59.9375 -108.21875 L 59.9375 -189.859375 L 91.671875 -189.859375 L 91.671875 0 L 59.9375 0 L 59.9375 -81.640625 L 40.953125 -81.640625 L 40.953125 0 Z M 9.5 0 "/></g></g></g><g fill="#77b4ff" fill-opacity="1"><g transform="translate(620.094798, 499.773453)"><g><path d="M 71.328125 0 L 9.5 0 L 9.5 -189.859375 L 71.328125 -189.859375 L 71.328125 -163 L 40.953125 -163 L 40.953125 -108.21875 L 68.625 -108.21875 L 68.625 -81.640625 L 40.953125 -81.640625 L 40.953125 -26.84375 L 71.328125 -26.84375 Z M 71.328125 0 "/></g></g></g><g fill="#77b4ff" fill-opacity="1"><g transform="translate(686.807675, 499.773453)"><g><path d="M 59.390625 0 L 9.5 0 L 9.5 -189.859375 L 59.390625 -189.859375 C 68.972656 -189.859375 76.75 -186.914062 82.71875 -181.03125 C 88.6875 -175.15625 91.671875 -167.335938 91.671875 -157.578125 L 91.671875 -32.28125 C 91.671875 -22.695312 88.6875 -14.921875 82.71875 -8.953125 C 76.75 -2.984375 68.972656 0 59.390625 0 Z M 54.515625 -163 L 40.953125 -163 L 40.953125 -26.84375 L 54.515625 -26.84375 C 58.128906 -26.84375 59.9375 -28.65625 59.9375 -32.28125 L 59.9375 -157.578125 C 59.9375 -161.191406 58.128906 -163 54.515625 -163 Z M 54.515625 -163 "/></g></g></g><path fill="#4599ff" d="M 187.964844 321.4375 L 162.273438 419.339844 L 128.875 430.527344 Z M 187.964844 321.4375 " fill-opacity="1" fill-rule="nonzero"/><path fill="#4599ff" d="M 187.964844 321.4375 L 162.273438 419.339844 L 128.875 430.527344 Z M 187.964844 321.4375 " fill-opacity="1" fill-rule="nonzero"/><path fill="#4599ff" d="M 187.964844 321.4375 L 162.273438 419.339844 L 128.875 430.527344 Z M 187.964844 321.4375 " fill-opacity="1" fill-rule="nonzero"/><g clip-path="url(#7a4931b8c8)"><path fill="#4599ff" d="M 26.601562 500.554688 L 139.382812 310.074219 L 181.042969 310.074219 L 69.273438 500.554688 Z M 26.601562 500.554688 " fill-opacity="1" fill-rule="nonzero"/></g><path fill="#4599ff" d="M 160.375 400.164062 L 198.988281 387.292969 L 129.765625 505.703125 Z M 160.375 400.164062 " fill-opacity="1" fill-rule="nonzero"/></svg>